HIERARCHY
ROOT bottle1_body
{
	OFFSET 0.000000 0.000000 0.000000
	CHANNELS 6 Xposition Yposition Zposition Yrotation Xrotation Zrotation
	End Site
	{
		OFFSET 0.000000 0.000000 0.000000
	}
}
MOTION
Frames: 182
Frame Time: 0.008333334
0.643728 5.730687 2.827863 100.588500 -22.270600 -50.167820 
0.645253 5.736765 2.833511 100.925500 -21.927920 -49.869050 
0.647027 5.744254 2.840961 101.486900 -21.280940 -49.774630 
0.648595 5.753507 2.848954 102.250100 -20.541500 -49.628480 
0.649907 5.763838 2.857924 103.138800 -19.497440 -49.592530 
0.650456 5.776359 2.867965 104.195600 -18.373500 -49.295620 
0.651270 5.790691 2.878893 105.469800 -17.041630 -49.054630 
0.651334 5.806428 2.891309 106.793500 -15.744780 -48.730620 
0.650809 5.823831 2.905042 108.100500 -14.442260 -48.350010 
0.650614 5.840976 2.919224 109.313300 -13.295680 -47.755580 
0.650454 5.857790 2.932934 110.066700 -12.553040 -47.108490 
0.650960 5.873445 2.947361 110.515600 -12.213780 -46.138890 
0.652408 5.889524 2.961644 110.887700 -11.825650 -45.277070 
0.653893 5.906686 2.975040 111.265400 -11.340390 -44.571170 
0.654959 5.923422 2.988738 111.708300 -10.821750 -43.784210 
0.655937 5.940094 3.003244 112.273100 -10.213470 -43.138240 
0.656555 5.956399 3.016033 112.679400 -9.673950 -42.351810 
0.657168 5.971874 3.027422 112.951500 -8.987030 -41.839140 
0.658395 5.985673 3.037552 113.212900 -8.507782 -41.385890 
0.660137 5.997563 3.043726 113.097300 -7.784637 -40.970580 
0.663043 6.007515 3.047372 112.996600 -7.131897 -40.735570 
0.666328 6.015148 3.048465 112.826100 -6.378815 -40.580080 
0.669385 6.021404 3.048524 112.719700 -5.679962 -40.614840 
0.671560 6.026134 3.047878 112.756000 -4.785736 -40.791990 
0.670904 6.028549 3.048171 112.956700 -4.045044 -41.109680 
0.667292 6.029066 3.049606 113.263600 -3.446289 -41.390870 
0.660333 6.028284 3.052472 113.671500 -3.013824 -41.745420 
0.650165 6.026527 3.055932 114.155000 -2.604279 -42.069920 
0.636736 6.024592 3.060928 115.028800 -2.403107 -42.430570 
0.619998 6.022734 3.067784 115.844400 -2.236572 -42.754240 
0.599937 6.020388 3.077214 117.010200 -2.254181 -43.121830 
0.578328 6.016617 3.088648 118.356800 -2.204132 -43.295590 
0.554055 6.011207 3.101963 119.888300 -2.275726 -43.668400 
0.529193 6.003916 3.118236 121.788700 -2.518860 -44.046510 
0.505421 5.996934 3.133144 123.268600 -2.842987 -44.269900 
0.483455 5.989838 3.148517 124.600100 -3.339569 -44.603850 
0.464607 5.983872 3.162518 125.963600 -3.865021 -44.800750 
0.448425 5.978366 3.175222 127.062300 -4.352783 -45.122470 
0.434882 5.972856 3.185630 128.123600 -4.770264 -45.303470 
0.423182 5.967638 3.193441 129.306200 -5.081268 -45.470550 
0.413692 5.962946 3.197373 130.402600 -5.101929 -45.728610 
0.405277 5.957862 3.199759 131.529600 -4.900116 -45.934720 
0.399224 5.953328 3.199152 132.722100 -4.491028 -46.128200 
0.394062 5.949565 3.197777 133.904100 -4.060364 -46.374760 
0.390211 5.945447 3.195756 134.742800 -3.559448 -46.553990 
0.387438 5.942080 3.193518 135.327500 -3.300446 -46.597020 
0.385824 5.939710 3.189615 135.824900 -3.014923 -46.617770 
0.385705 5.937559 3.184613 136.229600 -2.702423 -46.673550 
0.387378 5.935123 3.176233 136.702800 -2.096863 -46.670840 
0.389486 5.931005 3.166155 137.041900 -1.471069 -46.880130 
0.392338 5.925264 3.153812 137.247400 -0.840790 -46.998230 
0.395727 5.919003 3.139012 137.400600 0.077314 -47.316830 
0.398253 5.910555 3.123772 137.586200 0.909371 -47.722110 
0.402138 5.902449 3.105846 137.582600 1.717152 -47.986510 
0.406338 5.893804 3.089040 137.724300 2.392909 -48.496800 
0.410948 5.886495 3.071833 137.707000 3.299421 -48.729060 
0.415669 5.878357 3.055356 137.601500 3.934142 -49.135010 
0.420771 5.870127 3.039733 137.391800 4.678643 -49.529390 
0.425651 5.861699 3.026163 137.334500 5.297336 -50.001710 
0.429955 5.852488 3.012782 137.043000 5.915225 -50.367220 
0.432943 5.843287 3.001400 137.077500 6.385315 -50.775330 
0.435502 5.834142 2.990398 137.075300 6.834886 -51.165010 
0.437185 5.824164 2.980724 137.172900 7.289455 -51.600890 
0.438632 5.815299 2.971252 137.296800 7.895776 -52.022340 
0.439876 5.806772 2.962581 137.605700 8.567397 -52.416720 
0.441070 5.798578 2.955439 137.964800 9.260255 -52.973510 
0.441084 5.791327 2.948945 138.342300 9.737100 -53.231020 
0.441219 5.784745 2.944148 138.779100 10.241690 -53.543820 
0.441118 5.779612 2.939862 139.251400 10.658800 -53.930450 
0.440919 5.774850 2.936603 139.596200 11.114430 -54.141510 
0.441337 5.771040 2.933676 139.945900 11.514730 -54.313720 
0.443111 5.769061 2.929365 140.330800 12.047840 -54.446170 
0.445927 5.767822 2.926976 140.864600 12.572530 -54.447330 
0.449563 5.767738 2.924133 141.394000 13.182400 -54.407930 
0.453563 5.769505 2.922062 141.830600 13.916260 -54.382480 
0.458106 5.771720 2.921278 142.428600 14.490920 -54.207550 
0.462407 5.775515 2.920936 142.905900 15.009770 -53.867370 
0.467930 5.779640 2.923174 143.783700 15.415620 -53.628970 
0.473192 5.785000 2.926292 144.399000 15.911310 -53.245390 
0.478929 5.790912 2.929611 145.021700 16.326300 -52.946290 
0.485453 5.797590 2.932884 145.484800 16.663160 -52.447480 
0.492604 5.804828 2.937943 146.108900 16.877780 -52.101010 
0.499356 5.812541 2.941111 146.439700 17.273620 -51.354800 
0.508059 5.820880 2.946812 147.120500 17.454820 -50.950560 
0.516591 5.828662 2.952175 147.502700 17.659640 -50.346980 
0.524533 5.836415 2.957755 147.831600 17.750890 -49.871830 
0.533218 5.843894 2.964983 148.193400 17.800480 -49.406190 
0.541293 5.851987 2.971870 148.314500 17.777830 -48.866210 
0.549018 5.858454 2.982206 148.654300 17.466130 -48.371800 
0.554870 5.865077 2.992772 148.900700 17.165670 -47.937260 
0.559134 5.871580 3.005429 149.069100 16.667510 -47.492920 
0.562729 5.876972 3.020412 149.278300 16.089610 -47.095060 
0.566455 5.882915 3.036199 149.483000 15.454450 -46.917910 
0.569603 5.888268 3.051226 149.690500 14.659230 -46.478450 
0.572741 5.893242 3.067605 149.799900 13.833540 -46.065310 
0.576585 5.898908 3.084898 149.827800 13.071730 -45.674470 
0.580740 5.904936 3.102660 149.974100 12.376930 -45.228450 
0.585947 5.911402 3.118926 150.029800 11.658170 -44.842830 
0.592074 5.918238 3.134409 150.172600 11.105790 -44.185390 
0.600112 5.925959 3.149066 150.149300 10.693040 -43.632570 
0.609718 5.934931 3.161978 150.339100 10.475800 -43.112090 
0.620112 5.943521 3.173687 150.537400 10.257930 -42.399050 
0.631961 5.952586 3.184336 150.695000 10.309240 -41.676700 
0.643944 5.961238 3.193917 150.806100 10.303480 -40.967350 
0.656119 5.970074 3.202424 150.783700 10.326510 -40.447270 
0.668099 5.978321 3.212710 150.753000 10.494200 -39.802120 
0.680342 5.987006 3.221369 150.849600 10.540750 -39.137970 
0.691099 5.995312 3.229776 150.886000 10.577380 -38.597630 
0.700820 6.003060 3.238502 150.984700 10.677130 -38.016140 
0.709791 6.011364 3.246816 151.343300 10.894280 -37.467440 
0.717254 6.020304 3.253960 151.926300 11.367530 -36.893160 
0.723327 6.028979 3.260830 152.608500 11.959730 -36.316890 
0.728214 6.036883 3.267913 153.389800 12.737360 -35.819270 
0.731998 6.044960 3.271803 154.135500 13.351790 -35.249450 
0.735032 6.051797 3.275263 154.924800 13.961770 -34.831700 
0.736520 6.058663 3.277502 155.670300 14.822070 -34.396180 
0.736488 6.064397 3.279187 156.511800 15.695430 -34.016780 
0.734963 6.070090 3.277601 157.323000 16.533430 -33.624020 
0.733118 6.074847 3.276212 158.221700 17.486870 -33.357390 
0.729300 6.078975 3.273696 159.028700 18.314510 -33.111630 
0.723233 6.082613 3.271913 159.708900 19.170710 -32.796630 
0.715552 6.085014 3.270980 160.508500 20.092900 -32.653780 
0.706073 6.085854 3.268528 161.424900 21.083040 -32.344240 
0.697566 6.085622 3.265365 162.356600 22.209450 -32.369140 
0.687819 6.083739 3.261122 162.975800 23.276880 -32.215060 
0.677929 6.079708 3.256910 163.636800 24.362870 -32.233760 
0.667890 6.075427 3.253241 164.396100 25.628760 -32.395110 
0.656560 6.070124 3.248767 165.293200 26.752720 -32.056340 
0.646832 6.064499 3.246449 166.252400 28.112750 -31.982480 
0.637809 6.059237 3.241807 167.196000 29.387860 -31.608400 
0.632392 6.055171 3.236362 167.847200 30.476670 -31.112150 
0.630834 6.054184 3.231007 168.433300 31.428120 -30.536830 
0.630568 6.054258 3.229557 168.831000 32.026400 -29.922490 
0.629882 6.055341 3.233345 169.436000 32.239030 -29.249940 
0.628636 6.057212 3.243406 169.946400 32.289680 -28.796880 
0.627462 6.061110 3.255131 170.493100 31.940690 -27.906370 
0.627197 6.065091 3.272487 171.317000 31.558160 -27.324400 
0.627142 6.069311 3.290444 172.019000 30.882200 -26.761630 
0.627307 6.073004 3.310331 172.908200 30.222200 -26.369200 
0.627056 6.076392 3.328925 173.777200 29.567220 -25.775210 
0.626910 6.079490 3.346340 174.802700 28.852550 -25.215000 
0.626470 6.080990 3.362983 175.724200 28.311070 -24.876590 
0.625659 6.081049 3.376573 176.681400 27.863880 -24.527010 
0.624968 6.079128 3.387191 177.553300 27.498240 -24.496090 
0.622759 6.076169 3.394502 178.376400 27.234880 -24.278050 
0.620127 6.071454 3.399455 179.474200 27.358910 -24.309840 
0.615647 6.064771 3.403074 -179.339300 27.633570 -24.334230 
0.609701 6.057387 3.401751 -178.536700 27.872700 -24.358980 
0.603149 6.048510 3.398172 -177.379900 28.387950 -24.527070 
0.596459 6.039556 3.391650 -176.207500 29.218200 -24.577580 
0.589566 6.029742 3.381992 -175.050600 29.942200 -24.539060 
0.582783 6.019909 3.371120 -173.788000 31.001780 -24.612430 
0.575784 6.009963 3.357918 -172.768700 31.952560 -24.557740 
0.569497 6.000585 3.343069 -171.945400 32.980360 -24.424260 
0.564658 5.990797 3.327440 -170.945500 34.063470 -24.560420 
0.560148 5.981921 3.308232 -170.147400 35.095190 -24.124270 
0.557277 5.972787 3.290686 -169.059800 36.287100 -23.915770 
0.554656 5.963759 3.272169 -168.085000 37.225630 -23.495300 
0.552510 5.955525 3.255625 -167.110500 38.195180 -23.208340 
0.549557 5.947565 3.238731 -166.700100 38.953750 -22.951480 
0.547134 5.940055 3.225907 -166.007500 39.709990 -22.844670 
0.544365 5.932718 3.213611 -165.699900 40.257080 -22.845520 
0.542161 5.926024 3.201256 -165.286100 40.744470 -22.727230 
0.540194 5.920033 3.189554 -164.745500 41.346000 -22.549010 
0.538345 5.913622 3.176950 -164.262600 41.870180 -22.315860 
0.537227 5.907299 3.164809 -163.588500 42.565760 -22.049530 
0.535596 5.900027 3.152656 -163.043500 43.228120 -21.963840 
0.533118 5.893085 3.138911 -162.628900 43.778230 -21.750430 
0.531231 5.885405 3.127017 -161.941200 44.572080 -21.530730 
0.529049 5.876782 3.114415 -161.354900 45.360080 -21.297150 
0.526692 5.867835 3.100362 -160.950800 46.061160 -21.130650 
0.524717 5.858469 3.086512 -160.489100 46.909750 -20.887700 
0.522470 5.848940 3.073631 -159.907300 47.761920 -20.705840 
0.520120 5.839458 3.061200 -159.396000 48.627830 -20.457890 
0.518544 5.830767 3.050688 -158.926100 49.389640 -20.483730 
0.515999 5.823301 3.040483 -158.652800 49.946820 -20.201420 
0.514748 5.816146 3.032777 -158.177500 50.566560 -20.136720 
0.514074 5.809599 3.025374 -157.476600 51.298020 -19.899480 
0.514081 5.803789 3.018284 -156.879100 51.871270 -19.678860 
0.514803 5.798311 3.011815 -155.931500 52.435830 -19.123900 
0.515982 5.793685 3.004943 -155.041800 52.909330 -18.573640 
0.518047 5.790260 2.998808 -153.972900 53.403090 -17.731140 
